# Blender v2.93.4 OBJ File: 'Cuadrado y lateral.blend'
# www.blender.org
mtllib lateral2.mtl
o obj_0.001
v -0.869691 0.117104 0.404507
v -0.939618 23.116997 0.404506
v 0.060381 23.120037 -0.595490
v 0.130308 0.120144 -0.595490
v 0.060377 23.120037 0.404510
v 50.060146 23.272053 -0.595313
v 50.130074 0.272159 -0.595313
v 0.130304 0.120144 0.404510
v 50.060143 23.272053 0.404687
v 50.130070 0.272159 0.404687
vn -0.7718 -0.5492 0.3204
vn -0.7751 0.5445 0.3204
vn -0.2990 0.6294 -0.7173
vn -0.2952 -0.6312 -0.7173
vn -0.0021 0.7071 0.7071
vn 0.5756 0.5791 -0.5773
vn 0.5791 -0.5756 -0.5773
vn 0.0021 -0.7071 0.7071
vn 0.5756 0.5791 0.5773
vn 0.5791 -0.5756 0.5773
usemtl color_3888547
s 1
f 1//1 2//2 3//3
f 1//1 3//3 4//4
f 2//2 5//5 3//3
f 4//4 3//3 6//6
f 4//4 6//6 7//7
f 1//1 8//8 5//5
f 1//1 5//5 2//2
f 8//8 1//1 4//4
f 5//5 9//9 6//6
f 5//5 6//6 3//3
f 7//7 10//10 8//8
f 7//7 8//8 4//4
f 10//10 9//9 5//5
f 10//10 5//5 8//8
f 6//6 9//9 10//10
f 6//6 10//10 7//7
