# Blender v2.93.4 OBJ File: 'Cuadrado y lateral.blend'
# www.blender.org
mtllib lateral3.mtl
o obj_0.001
v -0.869693 23.146889 0.172309
v -0.939621 0.147606 0.004833
v 0.060378 0.137284 1.004781
v 0.130306 23.136566 1.172257
v 0.060375 0.144566 0.004807
v 50.060143 -0.014727 1.003499
v 50.130070 22.984556 1.170975
v 0.130302 23.143848 0.172284
v 50.060139 -0.007445 0.003525
v 50.130066 22.991838 0.171002
vn -0.7718 0.5516 -0.3164
vn -0.7751 -0.5422 -0.3243
vn -0.2990 -0.6345 0.7127
vn -0.2952 0.6259 0.7219
vn -0.0021 -0.7019 -0.7122
vn 0.5756 -0.5833 0.5731
vn 0.5791 0.5714 0.5815
vn 0.0021 0.7122 -0.7019
vn 0.5756 -0.5749 -0.5815
vn 0.5791 0.5798 -0.5731
usemtl color_3888547
s 1
f 1//1 2//2 3//3
f 1//1 3//3 4//4
f 2//2 5//5 3//3
f 4//4 3//3 6//6
f 4//4 6//6 7//7
f 1//1 8//8 5//5
f 1//1 5//5 2//2
f 8//8 1//1 4//4
f 5//5 9//9 6//6
f 5//5 6//6 3//3
f 7//7 10//10 8//8
f 7//7 8//8 4//4
f 10//10 9//9 5//5
f 10//10 5//5 8//8
f 6//6 9//9 10//10
f 6//6 10//10 7//7
