# Blender v2.93.4 OBJ File: ''
# www.blender.org
mtllib size2centered.mtl
o obj_0
v 3.500000 -3.500000 0.249999
v 3.500000 -3.500000 -0.250001
v 3.500000 3.500000 -0.249999
v 3.500000 3.500000 0.250001
v -3.500000 3.500000 0.250001
v -3.500000 3.500000 -0.249999
v -3.500000 -3.500000 -0.250001
v -3.500000 -3.500000 0.249999
vn 0.5773 -0.5773 0.5773
vn 0.5773 -0.5773 -0.5773
vn 0.5773 0.5773 -0.5773
vn 0.5773 0.5773 0.5773
vn -0.5773 0.5773 0.5773
vn -0.5773 0.5773 -0.5773
vn -0.5773 -0.5773 -0.5773
vn -0.5773 -0.5773 0.5773
usemtl color_15277357
s 1
f 1//1 2//2 3//3
f 1//1 3//3 4//4
f 5//5 6//6 7//7
f 5//5 7//7 8//8
f 2//2 7//7 6//6
f 2//2 6//6 3//3
f 4//4 3//3 6//6
f 4//4 6//6 5//5
f 4//4 5//5 8//8
f 4//4 8//8 1//1
f 8//8 7//7 2//2
f 8//8 2//2 1//1
