# Blender v2.93.4 OBJ File: ''
# www.blender.org
mtllib back.mtl
o obj_0.001
v -20.799999999999997 -18.0 1.599999999996049e-05
v -19.799999999999997 -18.0 1.599999999996049e-05
v -19.799999999999997 -18.0 1.000016
v -19.799999999999997 18.0 0.0
v 30.200000000000003 18.0 1.0999999999983245e-05
v 30.200000000000003 -18.0 2.599999999997049e-05
v 30.200000000000003 -18.0 1.000026
v 30.200000000000003 18.0 1.000011
v -19.799999999999997 18.0 1.0
v -20.799999999999997 18.0 0.0
vn -0.7734 -0.5469 -0.3204
vn 0.0000 -0.7071 -0.7071
vn -0.2971 -0.6302 0.7173
vn 0.0000 0.7071 -0.7071
vn 0.5773 0.5773 -0.5773
vn 0.5773 -0.5773 -0.5773
vn 0.5773 -0.5773 0.5773
vn 0.5773 0.5773 0.5773
vn -0.2971 0.6302 0.7173
vn -0.7734 0.5469 -0.3204
usemtl color_3888547.001
s 1
f 1//1 2//2 3//3
f 4//4 5//5 6//6
f 4//4 6//6 2//2
f 3//3 7//7 8//8
f 3//3 8//8 9//9
f 2//2 6//6 7//7
f 2//2 7//7 3//3
f 4//4 10//10 9//9
f 9//9 8//8 5//5
f 9//9 5//5 4//4
f 10//10 1//1 3//3
f 10//10 3//3 9//9
f 10//10 4//4 2//2
f 10//10 2//2 1//1
f 6//6 5//5 8//8
f 6//6 8//8 7//7
