# Blender v2.93.4 OBJ File: 'Cuadrado y lateral.blend'
# www.blender.org
mtllib lateral3.mtl
o obj_0.001
v -20.7649395 11.565790900000003 0.168784
v -20.834867499999998 -11.433492099999999 0.0013079999999999997
v -19.8348685 -11.443814099999999 1.001256
v -19.764940499999998 11.5554679 1.168732
v -19.8348715 -11.436532099999999 0.0012819999999999997
v 30.164896499999998 -11.595825099999999 0.9999739999999999
v 30.234823500000005 11.403457900000003 1.16745
v -19.7649445 11.5627499 0.168759
v 30.1648925 -11.588543099999999 0.0
v 30.2348195 11.410739900000003 0.167477
vn -0.7718 0.5516 -0.3164
vn -0.7751 -0.5422 -0.3243
vn -0.2990 -0.6345 0.7127
vn -0.2952 0.6259 0.7219
vn -0.0021 -0.7019 -0.7122
vn 0.5756 -0.5833 0.5731
vn 0.5791 0.5714 0.5815
vn 0.0021 0.7122 -0.7019
vn 0.5756 -0.5749 -0.5815
vn 0.5791 0.5798 -0.5731
usemtl color_3888547
s 1
f 1//1 2//2 3//3
f 1//1 3//3 4//4
f 2//2 5//5 3//3
f 4//4 3//3 6//6
f 4//4 6//6 7//7
f 1//1 8//8 5//5
f 1//1 5//5 2//2
f 8//8 1//1 4//4
f 5//5 9//9 6//6
f 5//5 6//6 3//3
f 7//7 10//10 8//8
f 7//7 8//8 4//4
f 10//10 9//9 5//5
f 10//10 5//5 8//8
f 6//6 9//9 10//10
f 6//6 10//10 7//7
